<svg width="188" height="48" viewBox="0 0 188 48" fill="none" xmlns="http://www.w3.org/2000/svg">
<g clip-path="url(#clip0_1080_335)">
<path d="M59.7003 35.9839V9.17957H64.0514L64.1157 13.4848L63.363 13.1635C63.5373 12.3382 63.964 11.5875 64.5839 11.0155C65.294 10.3304 66.1292 9.78814 67.044 9.41824C68.0058 9.01325 69.0388 8.80417 70.0824 8.80321C71.6671 8.78783 73.2215 9.23786 74.5529 10.0975C75.8715 10.9538 76.9391 12.1449 77.6464 13.549C78.4252 15.1226 78.8125 16.8609 78.7755 18.6162C78.8084 20.3622 78.4212 22.0907 77.6464 23.6558C76.9426 25.0721 75.875 26.276 74.5529 27.144C73.2488 28.0058 71.7189 28.4625 70.1559 28.4567C69.0482 28.4484 67.9543 28.2109 66.943 27.759C65.9823 27.3666 65.1041 26.7967 64.3544 26.0792C63.7221 25.4822 63.2786 24.7131 63.0784 23.8669L64.1891 23.3804V35.9839H59.7003ZM69.2563 24.4911C70.2071 24.5085 71.1422 24.2468 71.9459 23.7384C72.7406 23.2291 73.3766 22.5072 73.7818 21.6546C74.2374 20.7044 74.4638 19.6606 74.4427 18.607C74.4664 17.5581 74.2464 16.5181 73.8001 15.5686C73.3942 14.7214 72.758 14.0056 71.9642 13.5031C71.1402 12.9871 70.1823 12.7253 69.2104 12.7504C68.241 12.7267 67.2853 12.9816 66.4565 13.4848C65.6714 13.9973 65.0375 14.7104 64.6206 15.5502C64.1556 16.5011 63.9228 17.5487 63.9413 18.607C63.9218 19.6625 64.1547 20.7073 64.6206 21.6546C65.0371 22.4996 65.6707 23.2188 66.4565 23.7384C67.293 24.2648 68.2686 24.5271 69.2563 24.4911Z" fill="white"/>
<path d="M85.3848 5.13138C84.6377 5.17886 83.9001 4.94285 83.3194 4.47045C83.0602 4.23293 82.8567 3.94109 82.7234 3.61578C82.5901 3.29047 82.5303 2.93974 82.5483 2.58864C82.5388 2.24706 82.6009 1.90727 82.7306 1.5911C82.8602 1.27493 83.0545 0.98936 83.301 0.752723C83.5801 0.493863 83.9084 0.293816 84.2664 0.164497C84.6244 0.0351787 85.0047 -0.0207652 85.3848 -2.12668e-06C86.1433 -0.0486996 86.8927 0.186934 87.4869 0.660927C87.7401 0.911022 87.9366 1.21252 88.0633 1.54508C88.19 1.87763 88.2439 2.23349 88.2213 2.58864C88.2342 2.93066 88.1737 3.2715 88.0439 3.58818C87.9141 3.90487 87.7179 4.19006 87.4686 4.42455C86.8928 4.92295 86.145 5.1766 85.3848 5.13138ZM83.2276 28.0803V9.17957H87.643V28.0895L83.2276 28.0803Z" fill="white"/>
<path d="M91.2689 28.0895L98.7778 17.992L101.293 21.012L96.4829 28.0528L91.2689 28.0895ZM105.497 28.0895L100.109 20.7458L99.0716 19.4332L91.3056 9.17957H96.7675L102.009 16.2846L103.129 17.7992L110.849 28.1079L105.497 28.0895ZM103.129 19.2771L100.724 16.2937L105.066 9.17957H110.271L103.129 19.2771Z" fill="white"/>
<path d="M120.074 28.4567C118.564 28.4706 117.086 28.0186 115.843 27.1623C114.544 26.2667 113.492 25.0573 112.786 23.6466C112.002 22.074 111.609 20.3361 111.638 18.5794C111.609 16.8228 112.002 15.0849 112.786 13.5123C113.492 12.0916 114.571 10.8891 115.907 10.0333C117.24 9.18874 118.79 8.75166 120.368 8.77566C121.257 8.76521 122.142 8.90487 122.984 9.18874C123.745 9.44551 124.451 9.84076 125.068 10.3545C125.675 10.8354 126.197 11.4158 126.61 12.0711C127.002 12.7117 127.276 13.4175 127.418 14.1549L126.445 13.8979V9.17956H130.897V28.0895H126.408V23.564L127.455 23.3804C127.266 24.0613 126.955 24.7021 126.537 25.2714C126.075 25.8944 125.518 26.4398 124.884 26.887C124.205 27.3569 123.468 27.7365 122.69 28.016C121.851 28.3146 120.965 28.4637 120.074 28.4567ZM121.295 24.537C122.267 24.5616 123.225 24.2998 124.049 23.7843C124.845 23.2685 125.481 22.5404 125.885 21.6821C126.349 20.7149 126.578 19.6519 126.555 18.5794C126.577 17.5218 126.347 16.4742 125.885 15.5226C125.475 14.673 124.84 13.9522 124.049 13.4389C123.223 12.9273 122.267 12.6658 121.295 12.6862C120.323 12.6605 119.365 12.9223 118.541 13.4389C117.748 13.9497 117.112 14.6712 116.705 15.5226C116.261 16.4793 116.041 17.5249 116.063 18.5794C116.04 19.6489 116.259 20.7098 116.705 21.6821C117.107 22.542 117.743 23.2707 118.541 23.7843C119.364 24.3017 120.324 24.5607 121.295 24.5278V24.537Z" fill="white"/>
<path d="M135.983 28.0895V9.17956H140.38L140.453 15.2105L139.838 13.8428C140.102 12.8941 140.569 12.014 141.206 11.2633C141.824 10.5055 142.589 9.8809 143.455 9.42741C144.278 8.99227 145.195 8.76535 146.126 8.76648C146.517 8.76618 146.907 8.79996 147.292 8.86746C147.606 8.92199 147.913 9.0081 148.21 9.12449L147.026 13.9713C146.719 13.8087 146.392 13.6883 146.053 13.6133C145.677 13.5188 145.292 13.4695 144.905 13.4664C144.325 13.4637 143.75 13.5767 143.214 13.799C142.678 14.0212 142.192 14.3482 141.784 14.7607C141.387 15.1697 141.075 15.6533 140.866 16.1836C140.627 16.7654 140.511 17.3906 140.527 18.0195V28.117L135.983 28.0895Z" fill="white"/>
<path d="M150.321 28.0895V24.9225L160.198 11.9334V12.8514H150.321V9.17957H164.788V12.3373L155.205 25.0694L155.058 24.3901H165.045V28.062L150.321 28.0895Z" fill="white"/>
<path d="M177.612 28.4567C175.827 28.487 174.066 28.0436 172.508 27.1716C171.045 26.3361 169.832 25.1256 168.992 23.665C168.114 22.1261 167.667 20.3787 167.698 18.607C167.668 16.8326 168.115 15.0826 168.992 13.5399C169.829 12.0798 171.044 10.8718 172.508 10.0425C174.059 9.20528 175.794 8.76697 177.557 8.76697C179.32 8.76697 181.055 9.20528 182.606 10.0425C184.07 10.8663 185.279 12.076 186.103 13.5399C186.973 15.085 187.417 16.8339 187.388 18.607C187.418 20.3774 186.974 22.1235 186.103 23.665C185.278 25.1305 184.069 26.3429 182.606 27.1716C181.082 28.0293 179.36 28.4724 177.612 28.4567ZM177.612 24.537C178.588 24.5551 179.547 24.2801 180.366 23.7476C181.172 23.2166 181.826 22.4861 182.266 21.6271C182.744 20.6979 182.972 19.6602 182.927 18.6162C182.974 17.5573 182.746 16.5042 182.266 15.5594C181.827 14.705 181.172 13.9803 180.366 13.4573C179.542 12.9387 178.585 12.6708 177.612 12.6862C176.632 12.6751 175.669 12.9439 174.837 13.461C174.004 13.978 173.337 14.7219 172.912 15.6053C172.443 16.5484 172.207 17.5904 172.224 18.6437C172.205 19.6884 172.441 20.7219 172.912 21.6546C173.345 22.5243 174.008 23.2579 174.831 23.7751C175.664 24.2924 176.631 24.554 177.612 24.5278V24.537Z" fill="white"/>
<path d="M34.227 0H19.5305V14.6965H34.227V0Z" fill="#FF338F"/>
<path d="M26.9568 48C25.6726 48.0298 24.4041 47.7127 23.285 47.082C22.1978 46.5241 21.267 45.7038 20.577 44.6953C19.9249 43.74 19.5733 42.6116 19.5673 41.4549V15.7521H34.2546V41.4549C34.2785 42.6024 33.9589 43.7309 33.3366 44.6953C32.7008 45.7098 31.8034 46.5343 30.7388 47.082C29.5889 47.7359 28.2785 48.0539 26.9568 48Z" fill="white"/>
<path d="M0.850061 23.2243C0.812837 21.9247 1.13017 20.6395 1.76802 19.5066C2.32813 18.421 3.14803 17.4907 4.15471 16.7986C5.11197 16.1506 6.23915 15.7993 7.3951 15.7889H18.4106V30.4762H7.3951C6.24767 30.4996 5.11938 30.18 4.15471 29.5582C3.13653 28.9149 2.31173 28.0076 1.76802 26.9329C1.12473 25.8055 0.806954 24.5216 0.850061 23.2243Z" fill="white"/>
<path d="M42.8283 33.3035C41.5443 33.3306 40.2765 33.0137 39.1564 32.3855C38.0552 31.8259 37.1092 31.0029 36.4026 29.9897C35.7575 29.0349 35.4093 27.9107 35.402 26.7585V15.743H50.0893V26.7585C50.1092 27.9026 49.7898 29.0269 49.1713 29.9897C48.5336 31.0049 47.6369 31.8319 46.5735 32.3855C45.4343 33.0327 44.1376 33.3506 42.8283 33.3035Z" fill="white"/>
<path d="M52.9074 7.27021C52.9428 8.56962 52.6256 9.85434 51.9894 10.9879C51.4271 12.0721 50.6077 13.0019 49.6028 13.6959C48.6489 14.3345 47.5286 14.6792 46.3807 14.6873H35.3652V-1.0463e-05H46.3807C47.5276 -0.0195266 48.6548 0.29979 49.6211 0.917947C50.6356 1.55378 51.46 2.45116 52.0078 3.51577C52.6503 4.65952 52.9618 5.9595 52.9074 7.27021Z" fill="white"/>
</g>
<defs>
<clipPath id="clip0_1080_335">
<rect width="186.575" height="48" fill="white" transform="translate(0.850098)"/>
</clipPath>
</defs>
</svg>
